<?xml version="1.0" encoding="UTF-8"?> <svg xmlns="http://www.w3.org/2000/svg" id="a" viewBox="0 0 1041.7 314.21"><path d="M.51,222.4c1.92-.56,3.77-.93,5.58-1.1,1.8-.17,3.44-.42,4.9-.76,1.35-.11,2.42-.22,3.21-.34,8-.57,13.05-1.42,15.13-2.56,2.09-1.14,3.69-2.96,4.82-5.46,2.93-7.61,4.79-13.58,5.58-17.9,.34-2.48,.62-4.18,.85-5.08,.23-1.35,.45-3.1,.67-5.25,.9-4.85,1.41-7.85,1.52-8.98,.34-3.05,1.13-7.31,2.37-12.79,1.24-5.48,2.31-11.71,3.22-18.72,.45-3.95,.79-6.44,1.02-7.45,2.48-12.08,4.23-21.4,5.25-27.95,4.4-27.44,7.61-45.4,9.64-53.86,.68-6.44,1.97-15.02,3.89-25.75l.34-8.4c0-1.9-.68-3.47-2.04-4.7-2.6-2.35-6.74-3.92-12.39-4.7-5.66-.78-10.13-1.18-13.42-1.18l-2.04,.17-2.89-1.19c-.11-1.36-.17-2.37-.17-3.05l.17-1.86c6.91-.22,10.75-.34,11.55-.34,15.4,0,25.75,.11,31.08,.34,3.72,.11,6.71,.17,8.97,.17,2.48,0,6.49-.09,12.02-.28,3.61-.15,6.32-.22,8.12-.22,16.92,0,28.65,.79,35.19,2.37,8.91,2.03,15.85,5.24,20.81,9.64,7.33,6.54,12.32,12.6,14.97,18.18s3.98,12.37,3.98,20.37c0,4.28-.88,8.57-2.63,12.85-1.75,4.28-4.55,8.51-8.38,12.68-1.24,1.36-5.7,4.9-13.38,10.65-1.69,1.02-3.84,2.25-6.44,3.72l-15.08,7.27c8.13,1.7,15.02,4.3,20.66,7.8,1.69,1.02,3.39,1.87,5.08,2.54,1.58,1.36,3.1,2.57,4.57,3.65,1.47,1.07,2.82,2.12,4.06,3.14,3.05,3.62,5.19,6.78,6.44,9.5l2.71,5.26c.79,1.58,1.72,5.2,2.79,10.86,1.07,5.65,1.61,10.68,1.61,15.09,0,3.62-.11,6.11-.34,7.46l-3.55,11.02c-4.97,9.16-8.91,15.86-11.85,20.1-2.93,4.24-8.18,9.41-15.73,15.52-4.06,3.28-9.87,6.39-17.43,9.33-3.27,1.24-10.21,2.77-20.81,4.58l-2.37,.17c-.68,0-4.01,.22-9.99,.68-3.39,.34-6.15,.51-8.29,.51-4.51,0-13.99-.45-28.43-1.36-5.3-.23-9.48-.74-12.52-1.52l-14.38-.51-2.03,.17-7.11,1.02-5.42-.34-9.98,1.19c-4.4,.9-8.13,1.36-11.17,1.36-.9,0-1.92-.06-3.05-.17l.51-5.59ZM78.52,111.8c-.57,5.99-2.57,16.45-6,31.38-1.03,4.19-2.4,12.67-4.11,25.45-4.57,19.91-6.85,32.69-6.85,38.34s1.33,9.13,3.98,11.11c2.66,1.98,10.6,2.97,23.82,2.97,10.73,0,20.12-1.41,28.14-4.24,1.47-.79,2.88-1.47,4.24-2.04,5.2-2.26,9.38-4.86,12.55-7.8,6.33-5.99,10.85-11.7,13.56-17.13,4.52-9.5,7.01-15.21,7.46-17.13,1.92-9.05,2.88-16.85,2.88-23.41,0-2.83-.4-5.96-1.19-9.41-.79-3.45-2.03-7.21-3.72-11.28-2.93-3.5-5.19-5.91-6.77-7.21-1.58-1.3-5.07-3.76-10.49-7.38-2.48-.79-4.79-1.64-6.93-2.55-1.47-.34-2.54-.56-3.21-.68-3.39-.79-5.64-1.24-6.77-1.36l-10.49-.34-7.95,.34h-6.76l-14.88,1.19-.51,1.19Zm5.44-9.49c12.93-.23,21.48-.79,25.64-1.69,8.77-1.8,16-4.37,21.68-7.69s10.99-7.86,15.94-13.61c2.92-3.38,5.45-8.14,7.59-14.29,2.14-6.14,3.21-11.53,3.21-16.15s-.68-9.13-2.03-13.19c-.91-2.71-2.88-6.37-5.92-10.99-4.18-4.62-7.16-7.44-8.97-8.45-3.61-1.92-9.99-3.89-19.12-5.92l-3.05,.17-13.37-.34c-3.72,0-6.71,.96-8.97,2.87-1.47,1.47-2.48,4.34-3.05,8.62-1.21,12.17-2.92,23.05-5.11,32.63l-5.12,28.74-.69,8.79c-.23,2.59-.51,4.9-.85,6.93l-.17,1.35c0,.56,.79,1.3,2.36,2.2Z"></path><path d="M314.2,129.07c0,26.2-7.93,49.46-23.8,69.79-15.87,20.33-32.33,30.49-49.38,30.49-9.15,0-16.54-3.42-22.19-10.25-5.65-6.83-8.47-17.53-8.47-32.1,0-9.82,2.2-21.14,6.61-33.96,4.4-12.82,10.1-23.46,17.11-31.93,1.58-1.92,3.39-4.23,5.42-6.94,5.98-7.79,13.1-14.34,21.34-19.65,8.24-5.31,16.66-7.96,25.24-7.96,7.9,0,14.57,3.3,19.99,9.91s8.13,17.48,8.13,32.61Zm-88.08,77.07c0,5.2,1.21,9.04,3.64,11.52,2.43,2.49,6.35,3.73,11.77,3.73s10.67-2.6,16.09-7.79c9.71-9.49,19.42-25.8,29.13-48.95,9.71-23.15,14.57-41.39,14.57-54.71,0-4.74-1.19-8.5-3.56-11.26-2.37-2.77-5.08-4.15-8.13-4.15-6.66,0-13.61,3.9-20.83,11.69-12.31,13.1-22.93,31.17-31.84,54.2-7.23,18.75-10.84,33.99-10.84,45.73Z"></path><path d="M437,129.07c0,26.2-7.93,49.46-23.8,69.79-15.87,20.33-32.33,30.49-49.38,30.49-9.15,0-16.54-3.42-22.19-10.25-5.65-6.83-8.47-17.53-8.47-32.1,0-9.82,2.2-21.14,6.61-33.96,4.4-12.82,10.1-23.46,17.11-31.93,1.58-1.92,3.39-4.23,5.42-6.94,5.98-7.79,13.1-14.34,21.34-19.65,8.24-5.31,16.66-7.96,25.24-7.96,7.9,0,14.57,3.3,19.99,9.91s8.13,17.48,8.13,32.61Zm-88.08,77.07c0,5.2,1.21,9.04,3.64,11.52,2.43,2.49,6.35,3.73,11.77,3.73s10.67-2.6,16.09-7.79c9.71-9.49,19.42-25.8,29.13-48.95,9.71-23.15,14.57-41.39,14.57-54.71,0-4.74-1.19-8.5-3.56-11.26-2.37-2.77-5.08-4.15-8.13-4.15-6.66,0-13.61,3.9-20.83,11.69-12.31,13.1-22.93,31.17-31.84,54.2-7.23,18.75-10.84,33.99-10.84,45.73Z"></path><path d="M521.02,11.18l1.52-4.4c14.18,0,27.19-1.75,39.02-5.25h6.2c-.99,2.82-2.48,6.33-4.46,10.5l-30.7,68.43-17,37.6-8.42,19.14c-.55,1.24-.99,2.65-1.32,4.23,3.34-2.14,6.07-4.12,8.19-5.93l23.4-22.36c10.92-9.49,20.11-15.95,27.58-19.39,7.46-3.44,14.71-5.17,21.72-5.17s13.98,2.71,20.22,8.13c4.12,3.62,6.18,8.53,6.18,14.74,0,10.28-5.5,20.05-16.5,29.3-11,9.26-26.44,13.89-46.32,13.89-7.82,0-16.92-.73-27.31-2.2,2.12,8.36,5.52,16.77,10.21,25.24,2.57,4.63,6.97,11.8,13.22,21.51,3.24,4.97,7.09,9.43,11.55,13.38,6.25,5.31,11.49,8.92,15.73,10.84s8.48,2.88,12.72,2.88c6.02,0,11.02-1.67,14.98-5,3.96-3.33,5.94-6.69,5.94-10.08,0-1.36-.48-2.54-1.44-3.56-.96-1.02-1.84-1.52-2.62-1.52s-3.28,.85-7.45,2.54c-1.36,.68-2.88,1.02-4.57,1.02-3.05,0-5.71-.96-7.96-2.88-1.58-1.36-2.37-3.22-2.37-5.59,0-2.93,1.24-5.45,3.73-7.54,2.48-2.09,6.21-3.19,11.18-3.3,6.32,1.36,10.67,3.5,13.04,6.44,3.39,4.18,5.08,8.98,5.08,14.4s-2.56,10.76-7.69,15.33c-5.12,4.57-11.92,6.86-20.38,6.86-13.37,0-25.01-2.99-34.92-8.98-9.91-5.98-19.77-16.49-29.58-31.51-5.46-8.24-11.36-22.08-17.71-41.5-1.76,2.63-4.35,7.6-7.76,14.92-.44,1.03-1.68,3.63-3.71,7.8-2.04,4.17-4.32,9.12-6.85,14.83-10.56,23.55-17.06,36.87-19.47,39.96-1.53,1.51-3.76,2.27-6.71,2.27-1.96,0-4.58-.51-7.85-1.52-.55-1.24-.82-2.32-.82-3.22,0-2.82,3.77-11.63,11.32-26.42,1.64-3.05,4.13-8.67,7.47-16.85,3.34-8.19,6.7-16.12,10.09-23.8l25.11-56.4,9.85-22.7c7-17.62,13.89-34.27,20.68-49.97,1.02-3.16,1.52-6.15,1.52-8.98,0-1.92-.57-3.5-1.69-4.74-1.13-1.24-3.73-2.43-7.79-3.56-2.6-.68-4.63-1.3-6.1-1.86Zm-5.08,131.95c6.35,1.69,11.69,2.54,16.04,2.54,18.15,0,34.02-2.48,47.61-7.45,9.91-3.73,16.77-8.05,20.58-12.96,3.81-4.91,5.72-9.51,5.72-13.81,0-1.92-.93-3.61-2.79-5.08-1.86-1.47-4.63-2.2-8.31-2.2-7.13,0-14.53,1.24-22.21,3.73-13.25,4.4-24.47,9.82-33.66,16.26s-16.84,12.76-22.97,18.97Z"></path><path d="M558.62,290.48c2.26-1.01,3.95-1.51,5.08-1.51,3.84,0,7.23,2.6,10.16,7.79,1.24,2.26,2.49,4.12,3.73,5.59,2.82,2.82,5.87,4.23,9.15,4.23,4.74,0,10.62-2.72,17.62-8.15,5.87-6.22,11.38-15.14,16.52-26.74,5.14-11.61,9.68-24.08,13.63-37.44l16.6-57.08c1.02-3.5,2.03-7.34,3.05-11.52l11.18-39.98c3.05-10.16,5.36-17.33,6.95-21.51-2.03-.11-3.56-.17-4.57-.17-.79,0-2.6,.08-5.42,.25-2.82,.17-9.49,.25-19.99,.25,.34-3.16,.68-5.98,1.02-8.47,2.37-.23,4.91-.39,7.62-.51l24.56-.85c4.97-16.6,10.61-32.18,16.94-46.75,3.95-8.69,9.6-17.45,16.94-26.25,5.65-6.66,12.37-12.03,20.16-16.09,3.73-2.03,8.52-3.05,14.4-3.05,7.23,0,13.04,1.95,17.45,5.84,4.4,3.9,6.61,7.93,6.61,12.11,0,2.71-.91,5.06-2.71,7.03-1.81,1.98-3.84,2.96-6.1,2.96-2.94,0-5.56-.96-7.88-2.88-2.32-1.92-3.98-4.91-5-8.98-.79-2.94-1.86-5.02-3.22-6.27-1.47-1.13-3.39-1.69-5.76-1.69s-4.24,.45-5.93,1.35c-3.5,1.81-7.34,5.25-11.52,10.33-2.94,3.73-6.07,9.21-9.41,16.43-3.33,7.23-6.95,17.53-10.84,30.91-3.9,13.38-6.07,21.65-6.52,24.81l4.58,.34,15.93-.34c.68,0,2.43,.11,5.25,.34,.11,1.02,.17,1.81,.17,2.37,0,1.69-.34,3.78-1.02,6.27l-27.96,1.02-5.59,18.97-14.22,51.15c-.79,2.71-1.47,4.91-2.03,6.61-2.03,5.31-3.28,9.32-3.73,12.03l-12.53,40.14c-5.53,15.47-11.04,28.23-16.52,38.28-5.48,10.05-12.28,19.08-20.41,27.1-5.98,5.76-12.31,9.99-18.97,12.7-4.29,1.8-9.88,2.71-16.77,2.71-9.49,0-16.06-1.49-19.73-4.46-3.67-2.97-5.5-6.54-5.5-10.69,0-3.93,1.52-6.79,4.57-8.58Z"></path><path d="M772.89,6.61l.51-4.91c13.84-1.13,24.33-1.69,31.48-1.69h7.49V2.28l-5.25,16.43c-.23,.45-4.35,10.9-12.37,31.34l-22.88,59.62c-4.07,11.18-10.85,28.45-20.33,51.83l-5.59,14.74c-3.95,10.73-7.12,17.95-9.49,21.68-3.73,6.08-5.59,10.58-5.59,13.5l.68,2.7c3.7-.34,8.27-2.88,13.72-7.62,7.97-6.66,15.21-15.19,21.71-25.58,2.1-.45,3.72-.68,4.88-.68l1.89,.17c-4.23,8.24-8.78,14.96-13.66,20.16-7.7,8.13-13.01,13.27-15.94,15.41-6.51,4.97-12.74,8.75-18.7,11.35-3.8,1.69-7.54,2.54-11.22,2.54-1.95,0-3.42-.51-4.39-1.52-.98-1.02-1.46-2.32-1.46-3.9,0-5.31,9.03-28.63,27.1-69.96,5.53-12.53,11.29-26.87,17.28-43.02,10.5-28.23,18.57-48.33,24.22-60.3,5.65-11.97,9.77-22.75,12.37-32.35,.22-.97,.34-1.79,.34-2.44,0-1.62-.79-3.14-2.37-4.55-2.03-1.73-6.83-3.47-14.4-5.2Z"></path><path d="M831.5,100.95c-2.37,0-4.12,.17-5.25,.51-5.31,2.82-9.21,5.25-11.69,7.28-5.08,3.95-9.88,8.58-14.4,13.89l-9.82,2.2c8.7-11.74,18.36-20.95,28.98-27.61,10.62-6.66,18.98-9.99,25.08-9.99,2.6,0,4.54,.65,5.84,1.95,1.3,1.3,1.95,2.96,1.95,5,0,5.54-3.16,14.75-9.49,27.63-.79,1.58-2.66,5.65-5.59,12.19-6.78,14.79-14.01,28.79-21.7,42-2.49,4.29-5.2,9.37-8.14,15.24-1.58,3.16-2.99,5.82-4.24,7.96-3.5,5.87-5.25,10.22-5.25,13.04,0,.79,.31,1.5,.93,2.12,.62,.62,1.38,.93,2.29,.93,1.24,0,3.13-.68,5.67-2.03,4.24-2.26,9.31-6.01,15.19-11.26s11.07-11.26,15.55-18.04h7.46c-3.42,6.1-8.47,13.1-15.14,21-6.67,7.91-14.26,14.23-22.76,18.97-6.38,3.61-12.04,5.42-17,5.42-3.78,0-6.55-.76-8.32-2.29-1.77-1.52-2.66-3.53-2.66-6.01,0-8.69,6.38-25.07,19.14-49.12l27.27-51.49c2.82-5.31,4.8-9.49,5.93-12.53,.68-1.92,1.02-3.22,1.02-3.9,0-.56-.28-1.58-.85-3.05Zm9.65-76.05c0-3.95,1.52-7.48,4.57-10.59,3.05-3.1,6.61-4.66,10.67-4.66,3.84,0,7.11,1.35,9.82,4.06,2.71,2.71,4.07,5.82,4.07,9.32,0,4.52-1.69,8.64-5.08,12.37-2.03,2.15-5.76,3.22-11.18,3.22-3.62,0-6.66-1.24-9.15-3.73-2.49-2.48-3.73-5.81-3.73-9.99Z"></path><path d="M876.05,193.78c-.57,1.58-1.02,2.77-1.36,3.56-2.15,5.31-3.22,8.81-3.22,10.5,0,1.58,.62,2.99,1.86,4.23,1.24,1.24,2.71,1.86,4.4,1.86,1.58,0,3.05-.33,4.4-.98,4.85-2.28,13.72-9.22,26.59-20.8,12.87-11.58,22.81-21.05,29.81-28.39-2.82-6.53-5.99-12.67-9.49-18.42l-17.44-29.48c-2.37-3.39-4.52-5.7-6.44-6.94-1.35-.79-2.71-1.19-4.07-1.19-1.92,0-3.5,.79-4.74,2.37-1.92,14.46-3.16,22.76-3.73,24.9-2.82-2.14-4.63-4.29-5.42-6.44-1.81-3.95-2.71-8.98-2.71-15.08,0-5.76,1.69-11.57,5.08-17.45,3.39-5.87,7.06-8.81,11.01-8.81,4.4,0,8.92,2.2,13.55,6.61,7.11,6.89,17.88,23.39,32.31,49.49,2.41,4.3,4.13,7.18,5.16,8.65l32.66-29.51c15.47-13.89,26.87-23.32,34.22-28.29,3.05-2.14,6.27-3.78,9.66-4.91,1.58-.56,3.16-.85,4.74-.85,2.37,0,4.43,1.05,6.18,3.13,1.75,2.09,2.63,4.94,2.63,8.55,0,10.05-3.33,17.67-9.99,22.87-2.6,1.35-4.52,2.03-5.76,2.03-1.58,0-3.56-.34-5.93-1.02,4.52-6.1,6.78-10.22,6.78-12.37,0-1.8-.68-3.5-2.03-5.08-1.36-.34-2.32-.51-2.88-.51-1.13,0-2.93,.45-5.42,1.35-1.58,.57-5.31,2.82-11.18,6.78-9.15,6.44-17.9,13.61-26.25,21.52l-23.17,22.01c14.24,26.97,22.82,42.2,25.76,45.7,2.11,2.73,4.23,4.1,6.34,4.1,1.89,0,3.62-.9,5.18-2.71,2.56-2.71,3.84-4.68,3.84-5.93l-.68-11.35,.34-1.52c1.5,0,2.71,.28,3.63,.85,2.89,4.07,4.33,9.66,4.33,16.77,0,2.15-.91,6.1-2.71,11.86-1.24,3.95-3.28,7.09-6.1,9.4-2.82,2.31-5.65,3.47-8.47,3.47s-5.56-.93-8.21-2.79c-2.65-1.86-7.03-7.08-13.13-15.67-.89-1.47-6.57-11.29-17.03-29.45l-6.42-10.08c-1.71,1.57-6.48,6.11-14.33,13.61-20.66,19.99-35.46,32.86-44.38,38.62-6.44,4.07-11.97,6.1-16.6,6.1s-8.24-1.39-11.18-4.17c-2.94-2.78-4.4-6.27-4.4-10.47,0-5.11,2.12-9.9,6.35-14.38,4.24-4.48,8.38-6.72,12.45-6.72,1.36,0,3.22,.28,5.59,.85Z"></path></svg> 